<svg xmlns="http://www.w3.org/2000/svg" viewBox="0 0 773.26 936.32"><defs><style>.a{fill:#231f20;stroke:#231f20;stroke-miterlimit:10;stroke-width:4px;}.b{fill:#737577;}.c{fill:#434345;}.d{fill:#4d4d4f;}.e{fill:#565759;}.f{fill:#696a6d;}.g{fill:#7e8083;}.h{font-size:373px;fill:#fff;font-family:LucidaSansUnicode, Lucida Sans Unicode;}</style></defs><title>NightBook_Icon</title><rect class="a" x="112.05" y="2" width="659.21" height="932.32" rx="39"/><rect class="b" y="267.58" width="348.47" height="348.47"/><path class="c" d="M530.47,2H733.26a38,38,0,0,1,38,38V175.47a0,0,0,0,1,0,0H530.47a0,0,0,0,1,0,0V2A0,0,0,0,1,530.47,2Z"/><rect class="d" x="530.47" y="170.26" width="240.79" height="189.22"/><rect class="e" x="530.47" y="359.48" width="240.79" height="200.68"/><rect class="f" x="530.47" y="560.16" width="240.79" height="200.68"/><path class="g" d="M530.47,760.84H771.26a0,0,0,0,1,0,0V896.32a38,38,0,0,1-38,38H530.47a0,0,0,0,1,0,0V760.84A0,0,0,0,1,530.47,760.84Z"/><text class="h" transform="translate(36.46 579.62)">N</text></svg>